<?xml version="1.0" standalone="no"?>
<!DOCTYPE svg PUBLIC "-//W3C//DTD SVG 1.1//EN" "http://www.w3.org/Graphics/SVG/1.1/DTD/svg11.dtd">
<svg version="1.1" width="1200" height="406" onload="init(evt)" viewBox="0 0 1200 406" xmlns="http://www.w3.org/2000/svg" xmlns:xlink="http://www.w3.org/1999/xlink">
<!-- Flame graph stack visualization. See https://github.com/brendangregg/FlameGraph for latest version, and http://www.brendangregg.com/flamegraphs.html for examples. -->
<!-- NOTES:  -->
<defs>
	<linearGradient id="background" y1="0" y2="1" x1="0" x2="0" >
		<stop stop-color="#eeeeee" offset="5%" />
		<stop stop-color="#eeeeb0" offset="95%" />
	</linearGradient>
</defs>
<style type="text/css">
	text { font-family:Verdana; font-size:12px; fill:rgb(0,0,0); }
	#search, #ignorecase { opacity:0.1; cursor:pointer; }
	#search:hover, #search.show, #ignorecase:hover, #ignorecase.show { opacity:1; }
	#subtitle { text-anchor:middle; font-color:rgb(160,160,160); }
	#title { text-anchor:middle; font-size:17px}
	#unzoom { cursor:pointer; }
	#frames > *:hover { stroke:black; stroke-width:0.5; cursor:pointer; }
	.hide { display:none; }
	.parent { opacity:0.5; }
</style>
<script type="text/ecmascript">
<![CDATA[
	"use strict";
	var details, searchbtn, unzoombtn, matchedtxt, svg, searching, currentSearchTerm, ignorecase, ignorecaseBtn;
	function init(evt) {
		details = document.getElementById("details").firstChild;
		searchbtn = document.getElementById("search");
		ignorecaseBtn = document.getElementById("ignorecase");
		unzoombtn = document.getElementById("unzoom");
		matchedtxt = document.getElementById("matched");
		svg = document.getElementsByTagName("svg")[0];
		searching = 0;
		currentSearchTerm = null;

		// use GET parameters to restore a flamegraphs state.
		var params = get_params();
		if (params.x && params.y)
			zoom(find_group(document.querySelector('[x="' + params.x + '"][y="' + params.y + '"]')));
                if (params.s) search(params.s);
	}

	// event listeners
	window.addEventListener("click", function(e) {
		var target = find_group(e.target);
		if (target) {
			if (target.nodeName == "a") {
				if (e.ctrlKey === false) return;
				e.preventDefault();
			}
			if (target.classList.contains("parent")) unzoom(true);
			zoom(target);
			if (!document.querySelector('.parent')) {
				// we have basically done a clearzoom so clear the url
				var params = get_params();
				if (params.x) delete params.x;
				if (params.y) delete params.y;
				history.replaceState(null, null, parse_params(params));
				unzoombtn.classList.add("hide");
				return;
			}

			// set parameters for zoom state
			var el = target.querySelector("rect");
			if (el && el.attributes && el.attributes.y && el.attributes._orig_x) {
				var params = get_params()
				params.x = el.attributes._orig_x.value;
				params.y = el.attributes.y.value;
				history.replaceState(null, null, parse_params(params));
			}
		}
		else if (e.target.id == "unzoom") clearzoom();
		else if (e.target.id == "search") search_prompt();
		else if (e.target.id == "ignorecase") toggle_ignorecase();
	}, false)

	// mouse-over for info
	// show
	window.addEventListener("mouseover", function(e) {
		var target = find_group(e.target);
		if (target) details.nodeValue = "Function: " + g_to_text(target);
	}, false)

	// clear
	window.addEventListener("mouseout", function(e) {
		var target = find_group(e.target);
		if (target) details.nodeValue = ' ';
	}, false)

	// ctrl-F for search
	// ctrl-I to toggle case-sensitive search
	window.addEventListener("keydown",function (e) {
		if (e.keyCode === 114 || (e.ctrlKey && e.keyCode === 70)) {
			e.preventDefault();
			search_prompt();
		}
		else if (e.ctrlKey && e.keyCode === 73) {
			e.preventDefault();
			toggle_ignorecase();
		}
	}, false)

	// functions
	function get_params() {
		var params = {};
		var paramsarr = window.location.search.substr(1).split('&');
		for (var i = 0; i < paramsarr.length; ++i) {
			var tmp = paramsarr[i].split("=");
			if (!tmp[0] || !tmp[1]) continue;
			params[tmp[0]]  = decodeURIComponent(tmp[1]);
		}
		return params;
	}
	function parse_params(params) {
		var uri = "?";
		for (var key in params) {
			uri += key + '=' + encodeURIComponent(params[key]) + '&';
		}
		if (uri.slice(-1) == "&")
			uri = uri.substring(0, uri.length - 1);
		if (uri == '?')
			uri = window.location.href.split('?')[0];
		return uri;
	}
	function find_child(node, selector) {
		var children = node.querySelectorAll(selector);
		if (children.length) return children[0];
	}
	function find_group(node) {
		var parent = node.parentElement;
		if (!parent) return;
		if (parent.id == "frames") return node;
		return find_group(parent);
	}
	function orig_save(e, attr, val) {
		if (e.attributes["_orig_" + attr] != undefined) return;
		if (e.attributes[attr] == undefined) return;
		if (val == undefined) val = e.attributes[attr].value;
		e.setAttribute("_orig_" + attr, val);
	}
	function orig_load(e, attr) {
		if (e.attributes["_orig_"+attr] == undefined) return;
		e.attributes[attr].value = e.attributes["_orig_" + attr].value;
		e.removeAttribute("_orig_"+attr);
	}
	function g_to_text(e) {
		var text = find_child(e, "title").firstChild.nodeValue;
		return (text)
	}
	function g_to_func(e) {
		var func = g_to_text(e);
		// if there's any manipulation we want to do to the function
		// name before it's searched, do it here before returning.
		return (func);
	}
	function update_text(e) {
		var r = find_child(e, "rect");
		var t = find_child(e, "text");
		var w = parseFloat(r.attributes.width.value) -3;
		var txt = find_child(e, "title").textContent.replace(/\([^(]*\)$/,"");
		t.attributes.x.value = parseFloat(r.attributes.x.value) + 3;

		// Smaller than this size won't fit anything
		if (w < 2 * 12 * 0.59) {
			t.textContent = "";
			return;
		}

		t.textContent = txt;
		var sl = t.getSubStringLength(0, txt.length);
		// check if only whitespace or if we can fit the entire string into width w
		if (/^ *$/.test(txt) || sl < w)
			return;

		// this isn't perfect, but gives a good starting point
		// and avoids calling getSubStringLength too often
		var start = Math.floor((w/sl) * txt.length);
		for (var x = start; x > 0; x = x-2) {
			if (t.getSubStringLength(0, x + 2) <= w) {
				t.textContent = txt.substring(0, x) + "..";
				return;
			}
		}
		t.textContent = "";
	}

	// zoom
	function zoom_reset(e) {
		if (e.attributes != undefined) {
			orig_load(e, "x");
			orig_load(e, "width");
		}
		if (e.childNodes == undefined) return;
		for (var i = 0, c = e.childNodes; i < c.length; i++) {
			zoom_reset(c[i]);
		}
	}
	function zoom_child(e, x, ratio) {
		if (e.attributes != undefined) {
			if (e.attributes.x != undefined) {
				orig_save(e, "x");
				e.attributes.x.value = (parseFloat(e.attributes.x.value) - x - 10) * ratio + 10;
				if (e.tagName == "text")
					e.attributes.x.value = find_child(e.parentNode, "rect[x]").attributes.x.value + 3;
			}
			if (e.attributes.width != undefined) {
				orig_save(e, "width");
				e.attributes.width.value = parseFloat(e.attributes.width.value) * ratio;
			}
		}

		if (e.childNodes == undefined) return;
		for (var i = 0, c = e.childNodes; i < c.length; i++) {
			zoom_child(c[i], x - 10, ratio);
		}
	}
	function zoom_parent(e) {
		if (e.attributes) {
			if (e.attributes.x != undefined) {
				orig_save(e, "x");
				e.attributes.x.value = 10;
			}
			if (e.attributes.width != undefined) {
				orig_save(e, "width");
				e.attributes.width.value = parseInt(svg.width.baseVal.value) - (10 * 2);
			}
		}
		if (e.childNodes == undefined) return;
		for (var i = 0, c = e.childNodes; i < c.length; i++) {
			zoom_parent(c[i]);
		}
	}
	function zoom(node) {
		var attr = find_child(node, "rect").attributes;
		var width = parseFloat(attr.width.value);
		var xmin = parseFloat(attr.x.value);
		var xmax = parseFloat(xmin + width);
		var ymin = parseFloat(attr.y.value);
		var ratio = (svg.width.baseVal.value - 2 * 10) / width;

		// XXX: Workaround for JavaScript float issues (fix me)
		var fudge = 0.0001;

		unzoombtn.classList.remove("hide");

		var el = document.getElementById("frames").children;
		for (var i = 0; i < el.length; i++) {
			var e = el[i];
			var a = find_child(e, "rect").attributes;
			var ex = parseFloat(a.x.value);
			var ew = parseFloat(a.width.value);
			var upstack;
			// Is it an ancestor
			if (0 == 0) {
				upstack = parseFloat(a.y.value) > ymin;
			} else {
				upstack = parseFloat(a.y.value) < ymin;
			}
			if (upstack) {
				// Direct ancestor
				if (ex <= xmin && (ex+ew+fudge) >= xmax) {
					e.classList.add("parent");
					zoom_parent(e);
					update_text(e);
				}
				// not in current path
				else
					e.classList.add("hide");
			}
			// Children maybe
			else {
				// no common path
				if (ex < xmin || ex + fudge >= xmax) {
					e.classList.add("hide");
				}
				else {
					zoom_child(e, xmin, ratio);
					update_text(e);
				}
			}
		}
		search();
	}
	function unzoom(dont_update_text) {
		unzoombtn.classList.add("hide");
		var el = document.getElementById("frames").children;
		for(var i = 0; i < el.length; i++) {
			el[i].classList.remove("parent");
			el[i].classList.remove("hide");
			zoom_reset(el[i]);
			if(!dont_update_text) update_text(el[i]);
		}
		search();
	}
	function clearzoom() {
		unzoom();

		// remove zoom state
		var params = get_params();
		if (params.x) delete params.x;
		if (params.y) delete params.y;
		history.replaceState(null, null, parse_params(params));
	}

	// search
	function toggle_ignorecase() {
		ignorecase = !ignorecase;
		if (ignorecase) {
			ignorecaseBtn.classList.add("show");
		} else {
			ignorecaseBtn.classList.remove("show");
		}
		reset_search();
		search();
	}
	function reset_search() {
		var el = document.querySelectorAll("#frames rect");
		for (var i = 0; i < el.length; i++) {
			orig_load(el[i], "fill")
		}
		var params = get_params();
		delete params.s;
		history.replaceState(null, null, parse_params(params));
	}
	function search_prompt() {
		if (!searching) {
			var term = prompt("Enter a search term (regexp " +
			    "allowed, eg: ^ext4_)"
			    + (ignorecase ? ", ignoring case" : "")
			    + "\nPress Ctrl-i to toggle case sensitivity", "");
			if (term != null) search(term);
		} else {
			reset_search();
			searching = 0;
			currentSearchTerm = null;
			searchbtn.classList.remove("show");
			searchbtn.firstChild.nodeValue = "Search"
			matchedtxt.classList.add("hide");
			matchedtxt.firstChild.nodeValue = ""
		}
	}
	function search(term) {
		if (term) currentSearchTerm = term;

		var re = new RegExp(currentSearchTerm, ignorecase ? 'i' : '');
		var el = document.getElementById("frames").children;
		var matches = new Object();
		var maxwidth = 0;
		for (var i = 0; i < el.length; i++) {
			var e = el[i];
			var func = g_to_func(e);
			var rect = find_child(e, "rect");
			if (func == null || rect == null)
				continue;

			// Save max width. Only works as we have a root frame
			var w = parseFloat(rect.attributes.width.value);
			if (w > maxwidth)
				maxwidth = w;

			if (func.match(re)) {
				// highlight
				var x = parseFloat(rect.attributes.x.value);
				orig_save(rect, "fill");
				rect.attributes.fill.value = "rgb(230,0,230)";

				// remember matches
				if (matches[x] == undefined) {
					matches[x] = w;
				} else {
					if (w > matches[x]) {
						// overwrite with parent
						matches[x] = w;
					}
				}
				searching = 1;
			}
		}
		if (!searching)
			return;
		var params = get_params();
		params.s = currentSearchTerm;
		history.replaceState(null, null, parse_params(params));

		searchbtn.classList.add("show");
		searchbtn.firstChild.nodeValue = "Reset Search";

		// calculate percent matched, excluding vertical overlap
		var count = 0;
		var lastx = -1;
		var lastw = 0;
		var keys = Array();
		for (k in matches) {
			if (matches.hasOwnProperty(k))
				keys.push(k);
		}
		// sort the matched frames by their x location
		// ascending, then width descending
		keys.sort(function(a, b){
			return a - b;
		});
		// Step through frames saving only the biggest bottom-up frames
		// thanks to the sort order. This relies on the tree property
		// where children are always smaller than their parents.
		var fudge = 0.0001;	// JavaScript floating point
		for (var k in keys) {
			var x = parseFloat(keys[k]);
			var w = matches[keys[k]];
			if (x >= lastx + lastw - fudge) {
				count += w;
				lastx = x;
				lastw = w;
			}
		}
		// display matched percent
		matchedtxt.classList.remove("hide");
		var pct = 100 * count / maxwidth;
		if (pct != 100) pct = pct.toFixed(1)
		matchedtxt.firstChild.nodeValue = "Matched: " + pct + "%";
	}
]]>
</script>
<rect x="0.0" y="0" width="1200.0" height="406.0" fill="url(#background)"  />
<text id="title" x="600.00" y="24" >Flame Graph</text>
<text id="details" x="10.00" y="389" > </text>
<text id="unzoom" x="10.00" y="24" class="hide">Reset Zoom</text>
<text id="search" x="1090.00" y="24" >Search</text>
<text id="ignorecase" x="1174.00" y="24" >ic</text>
<text id="matched" x="1090.00" y="389" > </text>
<g id="frames">
<g >
<title>handle_edge_irq (951,122,025 samples, 0.05%)</title><rect x="1181.3" y="245" width="0.6" height="15.0" fill="rgb(220,69,16)" rx="2" ry="2" />
<text  x="1184.28" y="255.5" ></text>
</g>
<g >
<title>do_syscall_64 (1,418,403,680 samples, 0.07%)</title><rect x="10.2" y="309" width="0.9" height="15.0" fill="rgb(209,20,4)" rx="2" ry="2" />
<text  x="13.20" y="319.5" ></text>
</g>
<g >
<title>__tlb_batch_free_encoded_pages (1,220,670,251 samples, 0.06%)</title><rect x="10.3" y="149" width="0.8" height="15.0" fill="rgb(205,3,0)" rx="2" ry="2" />
<text  x="13.32" y="159.5" ></text>
</g>
<g >
<title>unmap_vmas (1,409,352,452 samples, 0.07%)</title><rect x="10.2" y="197" width="0.9" height="15.0" fill="rgb(243,176,42)" rx="2" ry="2" />
<text  x="13.21" y="207.5" ></text>
</g>
<g >
<title>update_cfs_group (237,760,980 samples, 0.01%)</title><rect x="1184.7" y="149" width="0.2" height="15.0" fill="rgb(242,174,41)" rx="2" ry="2" />
<text  x="1187.74" y="159.5" ></text>
</g>
<g >
<title>folio_prealloc (1,251,183,859 samples, 0.06%)</title><rect x="1188.7" y="197" width="0.8" height="15.0" fill="rgb(239,160,38)" rx="2" ry="2" />
<text  x="1191.72" y="207.5" ></text>
</g>
<g >
<title>__update_load_avg_se (245,854,353 samples, 0.01%)</title><rect x="1185.6" y="133" width="0.1" height="15.0" fill="rgb(254,227,54)" rx="2" ry="2" />
<text  x="1188.60" y="143.5" ></text>
</g>
<g >
<title>x64_sys_call (1,418,403,680 samples, 0.07%)</title><rect x="10.2" y="293" width="0.9" height="15.0" fill="rgb(247,194,46)" rx="2" ry="2" />
<text  x="13.20" y="303.5" ></text>
</g>
<g >
<title>__x64_sys_exit_group (1,418,403,680 samples, 0.07%)</title><rect x="10.2" y="277" width="0.9" height="15.0" fill="rgb(214,42,10)" rx="2" ry="2" />
<text  x="13.20" y="287.5" ></text>
</g>
<g >
<title>entry_SYSCALL_64_after_hwframe (253,633,192 samples, 0.01%)</title><rect x="10.0" y="309" width="0.2" height="15.0" fill="rgb(218,63,15)" rx="2" ry="2" />
<text  x="13.04" y="319.5" ></text>
</g>
<g >
<title>__list_del_entry_valid_or_report (178,817,170 samples, 0.01%)</title><rect x="1189.2" y="85" width="0.1" height="15.0" fill="rgb(243,176,42)" rx="2" ry="2" />
<text  x="1192.19" y="95.5" ></text>
</g>
<g >
<title>get_page_from_freelist (592,986,578 samples, 0.03%)</title><rect x="1189.1" y="117" width="0.4" height="15.0" fill="rgb(252,218,52)" rx="2" ry="2" />
<text  x="1192.10" y="127.5" ></text>
</g>
<g >
<title>__schedule (289,304,014 samples, 0.01%)</title><rect x="1186.9" y="245" width="0.2" height="15.0" fill="rgb(227,103,24)" rx="2" ry="2" />
<text  x="1189.89" y="255.5" ></text>
</g>
<g >
<title>do_syscall_64 (253,633,192 samples, 0.01%)</title><rect x="10.0" y="293" width="0.2" height="15.0" fill="rgb(209,20,4)" rx="2" ry="2" />
<text  x="13.04" y="303.5" ></text>
</g>
<g >
<title>folio_batch_move_lru (330,024,740 samples, 0.02%)</title><rect x="1188.3" y="181" width="0.2" height="15.0" fill="rgb(207,10,2)" rx="2" ry="2" />
<text  x="1191.31" y="191.5" ></text>
</g>
<g >
<title>__hrtimer_run_queues (5,866,433,115 samples, 0.30%)</title><rect x="1182.9" y="229" width="3.5" height="15.0" fill="rgb(237,150,35)" rx="2" ry="2" />
<text  x="1185.88" y="239.5" ></text>
</g>
<g >
<title>void std::shuffle&lt;__gnu_cxx::__normal_iterator&lt;unsigned long*, std::vector&lt;unsigned long, std::allocator&lt;unsigned long&gt; &gt; &gt;, std::mersenne_twister_engine&lt;unsigned long, 32ul, 624ul, 397ul, 31ul, 2567483615ul, 11ul, 4294967295ul, 7ul, 2636928640ul, 15ul, 4022730752ul, 18ul, 1812433253ul&gt;&amp;&gt; (3,751,561,946 samples, 0.19%)</title><rect x="12.7" y="261" width="2.3" height="15.0" fill="rgb(242,170,40)" rx="2" ry="2" />
<text  x="15.71" y="271.5" ></text>
</g>
<g >
<title>std::mersenne_twister_engine&lt;unsigned long, 32ul, 624ul, 397ul, 31ul, 2567483615ul, 11ul, 4294967295ul, 7ul, 2636928640ul, 15ul, 4022730752ul, 18ul, 1812433253ul&gt;::operator (279,926,911 samples, 0.01%)</title><rect x="14.3" y="245" width="0.2" height="15.0" fill="rgb(235,139,33)" rx="2" ry="2" />
<text  x="17.30" y="255.5" ></text>
</g>
<g >
<title>SystemStressTest::performSequentialWrite (1,089,170,744 samples, 0.06%)</title><rect x="15.4" y="277" width="0.6" height="15.0" fill="rgb(253,222,53)" rx="2" ry="2" />
<text  x="18.36" y="287.5" ></text>
</g>
<g >
<title>_nv035480rm (255,690,460 samples, 0.01%)</title><rect x="1181.4" y="117" width="0.1" height="15.0" fill="rgb(246,192,45)" rx="2" ry="2" />
<text  x="1184.38" y="127.5" ></text>
</g>
<g >
<title>handle_irq_event (951,122,025 samples, 0.05%)</title><rect x="1181.3" y="229" width="0.6" height="15.0" fill="rgb(209,19,4)" rx="2" ry="2" />
<text  x="1184.28" y="239.5" ></text>
</g>
<g >
<title>__vm_munmap (253,633,192 samples, 0.01%)</title><rect x="10.0" y="261" width="0.2" height="15.0" fill="rgb(231,121,28)" rx="2" ry="2" />
<text  x="13.04" y="271.5" ></text>
</g>
<g >
<title>all (1,960,595,827,111 samples, 100%)</title><rect x="10.0" y="357" width="1180.0" height="15.0" fill="rgb(213,39,9)" rx="2" ry="2" />
<text  x="13.00" y="367.5" ></text>
</g>
<g >
<title>schedule (280,562,083 samples, 0.01%)</title><rect x="1182.2" y="261" width="0.2" height="15.0" fill="rgb(254,229,54)" rx="2" ry="2" />
<text  x="1185.24" y="271.5" ></text>
</g>
<g >
<title>hrtimer_interrupt (6,537,871,419 samples, 0.33%)</title><rect x="1182.8" y="245" width="3.9" height="15.0" fill="rgb(228,109,26)" rx="2" ry="2" />
<text  x="1185.81" y="255.5" ></text>
</g>
<g >
<title>tlb_flush_mmu (1,229,930,133 samples, 0.06%)</title><rect x="10.3" y="165" width="0.8" height="15.0" fill="rgb(214,45,10)" rx="2" ry="2" />
<text  x="13.32" y="175.5" ></text>
</g>
<g >
<title>_nv035481rm (281,180,818 samples, 0.01%)</title><rect x="1181.4" y="133" width="0.1" height="15.0" fill="rgb(240,162,38)" rx="2" ry="2" />
<text  x="1184.37" y="143.5" ></text>
</g>
<g >
<title>std::mersenne_twister_engine&lt;unsigned long, 32ul, 624ul, 397ul, 31ul, 2567483615ul, 11ul, 4294967295ul, 7ul, 2636928640ul, 15ul, 4022730752ul, 18ul, 1812433253ul&gt;::_M_gen_rand (280,645,533 samples, 0.01%)</title><rect x="14.7" y="229" width="0.2" height="15.0" fill="rgb(207,12,3)" rx="2" ry="2" />
<text  x="17.69" y="239.5" ></text>
</g>
<g >
<title>task_tick_fair (3,073,245,734 samples, 0.16%)</title><rect x="1184.3" y="165" width="1.9" height="15.0" fill="rgb(217,57,13)" rx="2" ry="2" />
<text  x="1187.30" y="175.5" ></text>
</g>
<g >
<title>std::mersenne_twister_engine&lt;unsigned long, 32ul, 624ul, 397ul, 31ul, 2567483615ul, 11ul, 4294967295ul, 7ul, 2636928640ul, 15ul, 4022730752ul, 18ul, 1812433253ul&gt;::operator (177,729,631 samples, 0.01%)</title><rect x="14.9" y="229" width="0.1" height="15.0" fill="rgb(235,139,33)" rx="2" ry="2" />
<text  x="17.86" y="239.5" ></text>
</g>
<g >
<title>SystemStressTest::memoryStressTest (4,593,603,116 samples, 0.23%)</title><rect x="1187.2" y="309" width="2.8" height="15.0" fill="rgb(206,8,1)" rx="2" ry="2" />
<text  x="1190.20" y="319.5" ></text>
</g>
<g >
<title>_nv035479rm (247,105,595 samples, 0.01%)</title><rect x="1181.4" y="101" width="0.1" height="15.0" fill="rgb(245,184,44)" rx="2" ry="2" />
<text  x="1184.39" y="111.5" ></text>
</g>
<g >
<title>_nv035580rm (340,908,727 samples, 0.02%)</title><rect x="1181.5" y="101" width="0.2" height="15.0" fill="rgb(240,162,38)" rx="2" ry="2" />
<text  x="1184.54" y="111.5" ></text>
</g>
<g >
<title>get_mem_cgroup_from_mm (231,497,837 samples, 0.01%)</title><rect x="1188.8" y="165" width="0.2" height="15.0" fill="rgb(218,61,14)" rx="2" ry="2" />
<text  x="1191.84" y="175.5" ></text>
</g>
<g >
<title>_nv015105rm (170,908,147 samples, 0.01%)</title><rect x="1181.6" y="37" width="0.1" height="15.0" fill="rgb(248,200,47)" rx="2" ry="2" />
<text  x="1184.61" y="47.5" ></text>
</g>
<g >
<title>clear_page_erms (716,776,614 samples, 0.04%)</title><rect x="10.5" y="85" width="0.5" height="15.0" fill="rgb(229,113,27)" rx="2" ry="2" />
<text  x="13.54" y="95.5" ></text>
</g>
<g >
<title>perf_adjust_freq_unthr_events (238,932,062 samples, 0.01%)</title><rect x="1183.8" y="133" width="0.1" height="15.0" fill="rgb(210,24,5)" rx="2" ry="2" />
<text  x="1186.76" y="143.5" ></text>
</g>
<g >
<title>do_group_exit (1,418,403,680 samples, 0.07%)</title><rect x="10.2" y="261" width="0.9" height="15.0" fill="rgb(219,67,16)" rx="2" ry="2" />
<text  x="13.20" y="271.5" ></text>
</g>
<g >
<title>__irq_exit_rcu (526,827,946 samples, 0.03%)</title><rect x="1182.5" y="261" width="0.3" height="15.0" fill="rgb(227,101,24)" rx="2" ry="2" />
<text  x="1185.50" y="271.5" ></text>
</g>
<g >
<title>update_entity_lag (204,826,357 samples, 0.01%)</title><rect x="1184.6" y="133" width="0.1" height="15.0" fill="rgb(221,74,17)" rx="2" ry="2" />
<text  x="1187.60" y="143.5" ></text>
</g>
<g >
<title>vms_clear_ptes (253,607,536 samples, 0.01%)</title><rect x="10.0" y="197" width="0.2" height="15.0" fill="rgb(206,4,1)" rx="2" ry="2" />
<text  x="13.04" y="207.5" ></text>
</g>
<g >
<title>__mmput (1,418,403,680 samples, 0.07%)</title><rect x="10.2" y="229" width="0.9" height="15.0" fill="rgb(249,203,48)" rx="2" ry="2" />
<text  x="13.20" y="239.5" ></text>
</g>
<g >
<title>asm_exc_page_fault (3,423,615,591 samples, 0.17%)</title><rect x="1187.8" y="293" width="2.1" height="15.0" fill="rgb(225,93,22)" rx="2" ry="2" />
<text  x="1190.81" y="303.5" ></text>
</g>
<g >
<title>alloc_pages_mpol_noprof (755,171,868 samples, 0.04%)</title><rect x="1189.0" y="149" width="0.5" height="15.0" fill="rgb(227,102,24)" rx="2" ry="2" />
<text  x="1192.00" y="159.5" ></text>
</g>
<g >
<title>irqentry_exit_to_user_mode (425,726,861 samples, 0.02%)</title><rect x="1182.1" y="277" width="0.3" height="15.0" fill="rgb(254,229,54)" rx="2" ry="2" />
<text  x="1185.15" y="287.5" ></text>
</g>
<g >
<title>perf_event_task_tick (366,753,074 samples, 0.02%)</title><rect x="1183.7" y="165" width="0.2" height="15.0" fill="rgb(205,3,0)" rx="2" ry="2" />
<text  x="1186.69" y="175.5" ></text>
</g>
<g >
<title>__munmap (253,633,192 samples, 0.01%)</title><rect x="10.0" y="325" width="0.2" height="15.0" fill="rgb(211,29,7)" rx="2" ry="2" />
<text  x="13.04" y="335.5" ></text>
</g>
<g >
<title>post_alloc_hook (204,821,260 samples, 0.01%)</title><rect x="1189.3" y="101" width="0.2" height="15.0" fill="rgb(227,104,24)" rx="2" ry="2" />
<text  x="1192.33" y="111.5" ></text>
</g>
<g >
<title>exit_mmap (1,418,403,680 samples, 0.07%)</title><rect x="10.2" y="213" width="0.9" height="15.0" fill="rgb(236,143,34)" rx="2" ry="2" />
<text  x="13.20" y="223.5" ></text>
</g>
<g >
<title>__pte_offset_map_lock (180,204,326 samples, 0.01%)</title><rect x="1188.5" y="197" width="0.1" height="15.0" fill="rgb(240,163,39)" rx="2" ry="2" />
<text  x="1191.51" y="207.5" ></text>
</g>
<g >
<title>sched_clock_cpu (187,438,098 samples, 0.01%)</title><rect x="1185.7" y="133" width="0.2" height="15.0" fill="rgb(229,113,27)" rx="2" ry="2" />
<text  x="1188.74" y="143.5" ></text>
</g>
<g >
<title>__sysvec_apic_timer_interrupt (6,546,442,453 samples, 0.33%)</title><rect x="1182.8" y="261" width="4.0" height="15.0" fill="rgb(242,173,41)" rx="2" ry="2" />
<text  x="1185.81" y="271.5" ></text>
</g>
<g >
<title>hrtimer_wakeup (443,524,768 samples, 0.02%)</title><rect x="1182.9" y="213" width="0.3" height="15.0" fill="rgb(252,219,52)" rx="2" ry="2" />
<text  x="1185.92" y="223.5" ></text>
</g>
<g >
<title>_nv013063rm (349,246,351 samples, 0.02%)</title><rect x="1181.5" y="117" width="0.2" height="15.0" fill="rgb(242,170,40)" rx="2" ry="2" />
<text  x="1184.54" y="127.5" ></text>
</g>
<g >
<title>try_to_wake_up (443,524,768 samples, 0.02%)</title><rect x="1182.9" y="197" width="0.3" height="15.0" fill="rgb(220,70,16)" rx="2" ry="2" />
<text  x="1185.92" y="207.5" ></text>
</g>
<g >
<title>update_process_times (5,006,018,387 samples, 0.26%)</title><rect x="1183.3" y="197" width="3.0" height="15.0" fill="rgb(250,209,50)" rx="2" ry="2" />
<text  x="1186.31" y="207.5" ></text>
</g>
<g >
<title>handle_softirqs (415,944,894 samples, 0.02%)</title><rect x="1182.5" y="245" width="0.3" height="15.0" fill="rgb(238,156,37)" rx="2" ry="2" />
<text  x="1185.53" y="255.5" ></text>
</g>
<g >
<title>SystemStressTest::cpuHashStressTest (1,945,668,272,057 samples, 99.24%)</title><rect x="16.2" y="309" width="1171.0" height="15.0" fill="rgb(227,102,24)" rx="2" ry="2" />
<text  x="19.19" y="319.5" >SystemStressTest::cpuHashStressTest</text>
</g>
<g >
<title>_nv046690rm (221,092,950 samples, 0.01%)</title><rect x="1181.4" y="53" width="0.1" height="15.0" fill="rgb(214,43,10)" rx="2" ry="2" />
<text  x="1184.40" y="63.5" ></text>
</g>
<g >
<title>rm_isr (875,177,680 samples, 0.04%)</title><rect x="1181.3" y="181" width="0.5" height="15.0" fill="rgb(251,214,51)" rx="2" ry="2" />
<text  x="1184.30" y="191.5" ></text>
</g>
<g >
<title>tick_nohz_handler (5,254,597,351 samples, 0.27%)</title><rect x="1183.2" y="213" width="3.2" height="15.0" fill="rgb(248,200,48)" rx="2" ry="2" />
<text  x="1186.19" y="223.5" ></text>
</g>
<g >
<title>do_anonymous_page (2,203,297,032 samples, 0.11%)</title><rect x="1188.2" y="213" width="1.3" height="15.0" fill="rgb(238,155,37)" rx="2" ry="2" />
<text  x="1191.17" y="223.5" ></text>
</g>
<g >
<title>rcu_core (177,494,449 samples, 0.01%)</title><rect x="1182.6" y="229" width="0.1" height="15.0" fill="rgb(222,81,19)" rx="2" ry="2" />
<text  x="1185.56" y="239.5" ></text>
</g>
<g >
<title>lock_vma_under_rcu (308,044,303 samples, 0.02%)</title><rect x="1189.6" y="245" width="0.2" height="15.0" fill="rgb(251,211,50)" rx="2" ry="2" />
<text  x="1192.63" y="255.5" ></text>
</g>
<g >
<title>common_interrupt (985,425,215 samples, 0.05%)</title><rect x="1181.3" y="277" width="0.6" height="15.0" fill="rgb(215,46,11)" rx="2" ry="2" />
<text  x="1184.28" y="287.5" ></text>
</g>
<g >
<title>entry_SYSCALL_64_after_hwframe (1,418,403,680 samples, 0.07%)</title><rect x="10.2" y="325" width="0.9" height="15.0" fill="rgb(218,63,15)" rx="2" ry="2" />
<text  x="13.20" y="335.5" ></text>
</g>
<g >
<title>SystemStressTest::performRandomAccess (6,362,097,030 samples, 0.32%)</title><rect x="11.1" y="277" width="3.9" height="15.0" fill="rgb(249,206,49)" rx="2" ry="2" />
<text  x="14.14" y="287.5" ></text>
</g>
<g >
<title>unsigned long std::uniform_int_distribution&lt;unsigned long&gt;::operator (832,093,083 samples, 0.04%)</title><rect x="14.5" y="245" width="0.5" height="15.0" fill="rgb(252,216,51)" rx="2" ry="2" />
<text  x="17.47" y="255.5" ></text>
</g>
<g >
<title>psi_account_irqtime (621,172,136 samples, 0.03%)</title><rect x="1183.9" y="165" width="0.4" height="15.0" fill="rgb(224,88,21)" rx="2" ry="2" />
<text  x="1186.92" y="175.5" ></text>
</g>
<g >
<title>amd_pstate_adjust_perf (265,258,646 samples, 0.01%)</title><rect x="1185.9" y="117" width="0.1" height="15.0" fill="rgb(224,91,21)" rx="2" ry="2" />
<text  x="1188.89" y="127.5" ></text>
</g>
<g >
<title>exc_page_fault (3,217,250,022 samples, 0.16%)</title><rect x="1187.9" y="277" width="2.0" height="15.0" fill="rgb(212,35,8)" rx="2" ry="2" />
<text  x="1190.91" y="287.5" ></text>
</g>
<g >
<title>_nv046811rm (875,177,680 samples, 0.04%)</title><rect x="1181.3" y="165" width="0.5" height="15.0" fill="rgb(246,192,45)" rx="2" ry="2" />
<text  x="1184.30" y="175.5" ></text>
</g>
<g >
<title>lru_add (278,581,897 samples, 0.01%)</title><rect x="1188.3" y="165" width="0.2" height="15.0" fill="rgb(241,167,40)" rx="2" ry="2" />
<text  x="1191.34" y="175.5" ></text>
</g>
<g >
<title>update_load_avg (1,455,717,700 samples, 0.07%)</title><rect x="1185.3" y="149" width="0.9" height="15.0" fill="rgb(240,165,39)" rx="2" ry="2" />
<text  x="1188.28" y="159.5" ></text>
</g>
<g >
<title>update_curr (664,363,435 samples, 0.03%)</title><rect x="1184.9" y="149" width="0.4" height="15.0" fill="rgb(227,105,25)" rx="2" ry="2" />
<text  x="1187.88" y="159.5" ></text>
</g>
<g >
<title>asm_sysvec_apic_timer_interrupt (8,103,089,844 samples, 0.41%)</title><rect x="1182.0" y="293" width="4.9" height="15.0" fill="rgb(232,127,30)" rx="2" ry="2" />
<text  x="1184.98" y="303.5" ></text>
</g>
<g >
<title>do_vmi_munmap (253,633,192 samples, 0.01%)</title><rect x="10.0" y="245" width="0.2" height="15.0" fill="rgb(253,223,53)" rx="2" ry="2" />
<text  x="13.04" y="255.5" ></text>
</g>
<g >
<title>__x64_sys_munmap (253,633,192 samples, 0.01%)</title><rect x="10.0" y="277" width="0.2" height="15.0" fill="rgb(206,7,1)" rx="2" ry="2" />
<text  x="13.04" y="287.5" ></text>
</g>
<g >
<title>free_unref_folios (1,031,822,623 samples, 0.05%)</title><rect x="10.4" y="101" width="0.7" height="15.0" fill="rgb(209,22,5)" rx="2" ry="2" />
<text  x="13.44" y="111.5" ></text>
</g>
<g >
<title>SystemStressTest::measureMemoryBandwidth (8,375,151,691 samples, 0.43%)</title><rect x="11.1" y="293" width="5.0" height="15.0" fill="rgb(216,52,12)" rx="2" ry="2" />
<text  x="14.06" y="303.5" ></text>
</g>
<g >
<title>schedule (289,304,014 samples, 0.01%)</title><rect x="1186.9" y="261" width="0.2" height="15.0" fill="rgb(254,229,54)" rx="2" ry="2" />
<text  x="1189.89" y="271.5" ></text>
</g>
<g >
<title>_nv035579rm (433,628,465 samples, 0.02%)</title><rect x="1181.5" y="133" width="0.3" height="15.0" fill="rgb(238,154,37)" rx="2" ry="2" />
<text  x="1184.54" y="143.5" ></text>
</g>
<g >
<title>perf_adjust_freq_unthr_context (349,673,358 samples, 0.02%)</title><rect x="1183.7" y="149" width="0.2" height="15.0" fill="rgb(236,146,35)" rx="2" ry="2" />
<text  x="1186.71" y="159.5" ></text>
</g>
<g >
<title>handle_mm_fault (2,633,677,846 samples, 0.13%)</title><rect x="1188.0" y="245" width="1.6" height="15.0" fill="rgb(234,135,32)" rx="2" ry="2" />
<text  x="1191.05" y="255.5" ></text>
</g>
<g >
<title>ktime_get_update_offsets_now (281,901,476 samples, 0.01%)</title><rect x="1186.6" y="229" width="0.1" height="15.0" fill="rgb(243,178,42)" rx="2" ry="2" />
<text  x="1189.57" y="239.5" ></text>
</g>
<g >
<title>__folio_batch_add_and_move (330,024,740 samples, 0.02%)</title><rect x="1188.3" y="197" width="0.2" height="15.0" fill="rgb(254,227,54)" rx="2" ry="2" />
<text  x="1191.31" y="207.5" ></text>
</g>
<g >
<title>execute_native_thread_routine (1,958,822,874,250 samples, 99.91%)</title><rect x="11.1" y="325" width="1178.9" height="15.0" fill="rgb(233,129,30)" rx="2" ry="2" />
<text  x="14.06" y="335.5" >execute_native_thread_routine</text>
</g>
<g >
<title>asm_sysvec_reschedule_ipi (365,247,509 samples, 0.02%)</title><rect x="1186.9" y="293" width="0.2" height="15.0" fill="rgb(249,205,49)" rx="2" ry="2" />
<text  x="1189.86" y="303.5" ></text>
</g>
<g >
<title>lru_gen_add_folio (171,873,326 samples, 0.01%)</title><rect x="1188.4" y="149" width="0.1" height="15.0" fill="rgb(216,53,12)" rx="2" ry="2" />
<text  x="1191.40" y="159.5" ></text>
</g>
<g >
<title>folios_put_refs (1,184,441,284 samples, 0.06%)</title><rect x="10.3" y="117" width="0.8" height="15.0" fill="rgb(254,229,54)" rx="2" ry="2" />
<text  x="13.34" y="127.5" ></text>
</g>
<g >
<title>enqueue_task (350,837,378 samples, 0.02%)</title><rect x="1182.9" y="165" width="0.3" height="15.0" fill="rgb(230,116,27)" rx="2" ry="2" />
<text  x="1185.95" y="175.5" ></text>
</g>
<g >
<title>free_pages_and_swap_cache (1,220,669,575 samples, 0.06%)</title><rect x="10.3" y="133" width="0.8" height="15.0" fill="rgb(222,82,19)" rx="2" ry="2" />
<text  x="13.32" y="143.5" ></text>
</g>
<g >
<title>_nv012767rm (280,849,116 samples, 0.01%)</title><rect x="1181.6" y="69" width="0.1" height="15.0" fill="rgb(227,103,24)" rx="2" ry="2" />
<text  x="1184.57" y="79.5" ></text>
</g>
<g >
<title>__mem_cgroup_charge (299,199,477 samples, 0.02%)</title><rect x="1188.8" y="181" width="0.2" height="15.0" fill="rgb(218,60,14)" rx="2" ry="2" />
<text  x="1191.81" y="191.5" ></text>
</g>
<g >
<title>__handle_mm_fault (2,485,496,085 samples, 0.13%)</title><rect x="1188.1" y="229" width="1.5" height="15.0" fill="rgb(207,9,2)" rx="2" ry="2" />
<text  x="1191.06" y="239.5" ></text>
</g>
<g >
<title>SystemStressTes (1,960,595,826,199 samples, 100.00%)</title><rect x="10.0" y="341" width="1180.0" height="15.0" fill="rgb(248,201,48)" rx="2" ry="2" />
<text  x="13.00" y="351.5" >SystemStressTes</text>
</g>
<g >
<title>__update_load_avg_cfs_rq (197,042,618 samples, 0.01%)</title><rect x="1185.5" y="133" width="0.1" height="15.0" fill="rgb(228,107,25)" rx="2" ry="2" />
<text  x="1188.48" y="143.5" ></text>
</g>
<g >
<title>arch_scale_freq_tick (185,722,199 samples, 0.01%)</title><rect x="1183.6" y="165" width="0.1" height="15.0" fill="rgb(252,219,52)" rx="2" ry="2" />
<text  x="1186.58" y="175.5" ></text>
</g>
<g >
<title>error_entry (186,716,525 samples, 0.01%)</title><rect x="1187.1" y="293" width="0.1" height="15.0" fill="rgb(240,163,39)" rx="2" ry="2" />
<text  x="1190.08" y="303.5" ></text>
</g>
<g >
<title>__handle_irq_event_percpu (942,575,850 samples, 0.05%)</title><rect x="1181.3" y="213" width="0.5" height="15.0" fill="rgb(236,147,35)" rx="2" ry="2" />
<text  x="1184.28" y="223.5" ></text>
</g>
<g >
<title>SystemStressTest::performSequentialRead (660,394,437 samples, 0.03%)</title><rect x="15.0" y="277" width="0.4" height="15.0" fill="rgb(227,101,24)" rx="2" ry="2" />
<text  x="17.97" y="287.5" ></text>
</g>
<g >
<title>vma_alloc_folio_noprof (797,930,561 samples, 0.04%)</title><rect x="1189.0" y="181" width="0.5" height="15.0" fill="rgb(218,61,14)" rx="2" ry="2" />
<text  x="1191.99" y="191.5" ></text>
</g>
<g >
<title>__common_interrupt (959,336,711 samples, 0.05%)</title><rect x="1181.3" y="261" width="0.6" height="15.0" fill="rgb(237,150,36)" rx="2" ry="2" />
<text  x="1184.28" y="271.5" ></text>
</g>
<g >
<title>_nv014979rm (229,664,592 samples, 0.01%)</title><rect x="1181.4" y="69" width="0.1" height="15.0" fill="rgb(232,125,29)" rx="2" ry="2" />
<text  x="1184.39" y="79.5" ></text>
</g>
<g >
<title>_nv046825rm (263,981,837 samples, 0.01%)</title><rect x="1181.6" y="53" width="0.1" height="15.0" fill="rgb(214,43,10)" rx="2" ry="2" />
<text  x="1184.58" y="63.5" ></text>
</g>
<g >
<title>vms_complete_munmap_vmas (253,607,536 samples, 0.01%)</title><rect x="10.0" y="213" width="0.2" height="15.0" fill="rgb(216,52,12)" rx="2" ry="2" />
<text  x="13.04" y="223.5" ></text>
</g>
<g >
<title>do_exit (1,418,403,680 samples, 0.07%)</title><rect x="10.2" y="245" width="0.9" height="15.0" fill="rgb(231,122,29)" rx="2" ry="2" />
<text  x="13.20" y="255.5" ></text>
</g>
<g >
<title>_nv046791rm (866,742,075 samples, 0.04%)</title><rect x="1181.3" y="149" width="0.5" height="15.0" fill="rgb(251,214,51)" rx="2" ry="2" />
<text  x="1184.31" y="159.5" ></text>
</g>
<g >
<title>folio_alloc_mpol_noprof (763,752,257 samples, 0.04%)</title><rect x="1189.0" y="165" width="0.5" height="15.0" fill="rgb(219,64,15)" rx="2" ry="2" />
<text  x="1192.00" y="175.5" ></text>
</g>
<g >
<title>_nv035445rm (238,359,941 samples, 0.01%)</title><rect x="1181.4" y="85" width="0.1" height="15.0" fill="rgb(240,162,38)" rx="2" ry="2" />
<text  x="1184.39" y="95.5" ></text>
</g>
<g >
<title>nvidia_isr (908,757,305 samples, 0.05%)</title><rect x="1181.3" y="197" width="0.5" height="15.0" fill="rgb(240,162,38)" rx="2" ry="2" />
<text  x="1184.29" y="207.5" ></text>
</g>
<g >
<title>irqentry_exit_to_user_mode (184,526,593 samples, 0.01%)</title><rect x="1181.9" y="277" width="0.1" height="15.0" fill="rgb(254,229,54)" rx="2" ry="2" />
<text  x="1184.87" y="287.5" ></text>
</g>
<g >
<title>SystemStressTest::continuousBandwidthTest (8,526,948,497 samples, 0.43%)</title><rect x="11.1" y="309" width="5.1" height="15.0" fill="rgb(212,32,7)" rx="2" ry="2" />
<text  x="14.06" y="319.5" ></text>
</g>
<g >
<title>reweight_entity (511,699,929 samples, 0.03%)</title><rect x="1184.4" y="149" width="0.3" height="15.0" fill="rgb(253,222,53)" rx="2" ry="2" />
<text  x="1187.41" y="159.5" ></text>
</g>
<g >
<title>enqueue_task_fair (230,945,575 samples, 0.01%)</title><rect x="1182.9" y="149" width="0.2" height="15.0" fill="rgb(216,52,12)" rx="2" ry="2" />
<text  x="1185.95" y="159.5" ></text>
</g>
<g >
<title>__rmqueue_pcplist (268,667,691 samples, 0.01%)</title><rect x="1189.1" y="101" width="0.2" height="15.0" fill="rgb(230,118,28)" rx="2" ry="2" />
<text  x="1192.15" y="111.5" ></text>
</g>
<g >
<title>do_user_addr_fault (3,164,829,354 samples, 0.16%)</title><rect x="1187.9" y="261" width="1.9" height="15.0" fill="rgb(228,108,25)" rx="2" ry="2" />
<text  x="1190.94" y="271.5" ></text>
</g>
<g >
<title>asm_common_interrupt (1,178,795,321 samples, 0.06%)</title><rect x="1181.3" y="293" width="0.7" height="15.0" fill="rgb(227,105,25)" rx="2" ry="2" />
<text  x="1184.27" y="303.5" ></text>
</g>
<g >
<title>__alloc_pages_noprof (695,320,188 samples, 0.04%)</title><rect x="1189.0" y="133" width="0.5" height="15.0" fill="rgb(205,4,1)" rx="2" ry="2" />
<text  x="1192.03" y="143.5" ></text>
</g>
<g >
<title>sysvec_apic_timer_interrupt (7,260,103,379 samples, 0.37%)</title><rect x="1182.5" y="277" width="4.4" height="15.0" fill="rgb(220,69,16)" rx="2" ry="2" />
<text  x="1185.49" y="287.5" ></text>
</g>
<g >
<title>__schedule (280,561,167 samples, 0.01%)</title><rect x="1182.2" y="245" width="0.2" height="15.0" fill="rgb(227,103,24)" rx="2" ry="2" />
<text  x="1185.24" y="255.5" ></text>
</g>
<g >
<title>sched_tick (4,596,300,057 samples, 0.23%)</title><rect x="1183.5" y="181" width="2.8" height="15.0" fill="rgb(238,155,37)" rx="2" ry="2" />
<text  x="1186.50" y="191.5" ></text>
</g>
<g >
<title>unmap_page_range (1,409,352,452 samples, 0.07%)</title><rect x="10.2" y="181" width="0.9" height="15.0" fill="rgb(206,5,1)" rx="2" ry="2" />
<text  x="13.21" y="191.5" ></text>
</g>
<g >
<title>ttwu_do_activate (384,662,543 samples, 0.02%)</title><rect x="1182.9" y="181" width="0.3" height="15.0" fill="rgb(215,48,11)" rx="2" ry="2" />
<text  x="1185.95" y="191.5" ></text>
</g>
<g >
<title>sugov_update_single_perf (485,478,850 samples, 0.02%)</title><rect x="1185.9" y="133" width="0.3" height="15.0" fill="rgb(206,8,2)" rx="2" ry="2" />
<text  x="1188.86" y="143.5" ></text>
</g>
<g >
<title>_nv038768rm (280,849,116 samples, 0.01%)</title><rect x="1181.6" y="85" width="0.1" height="15.0" fill="rgb(219,65,15)" rx="2" ry="2" />
<text  x="1184.57" y="95.5" ></text>
</g>
<g >
<title>irqentry_exit_to_user_mode (331,219,246 samples, 0.02%)</title><rect x="1186.9" y="277" width="0.2" height="15.0" fill="rgb(254,229,54)" rx="2" ry="2" />
<text  x="1189.87" y="287.5" ></text>
</g>
<g >
<title>do_vmi_align_munmap (253,633,192 samples, 0.01%)</title><rect x="10.0" y="229" width="0.2" height="15.0" fill="rgb(211,29,7)" rx="2" ry="2" />
<text  x="13.04" y="239.5" ></text>
</g>
</g>
</svg>
