<?xml version="1.0" standalone="no"?>
<!DOCTYPE svg PUBLIC "-//W3C//DTD SVG 1.1//EN" "http://www.w3.org/Graphics/SVG/1.1/DTD/svg11.dtd">
<svg version="1.1" width="1200" height="374" onload="init(evt)" viewBox="0 0 1200 374" xmlns="http://www.w3.org/2000/svg" xmlns:xlink="http://www.w3.org/1999/xlink">
<!-- Flame graph stack visualization. See https://github.com/brendangregg/FlameGraph for latest version, and http://www.brendangregg.com/flamegraphs.html for examples. -->
<!-- NOTES:  -->
<defs>
	<linearGradient id="background" y1="0" y2="1" x1="0" x2="0" >
		<stop stop-color="#eeeeee" offset="5%" />
		<stop stop-color="#eeeeb0" offset="95%" />
	</linearGradient>
</defs>
<style type="text/css">
	text { font-family:Verdana; font-size:12px; fill:rgb(0,0,0); }
	#search, #ignorecase { opacity:0.1; cursor:pointer; }
	#search:hover, #search.show, #ignorecase:hover, #ignorecase.show { opacity:1; }
	#subtitle { text-anchor:middle; font-color:rgb(160,160,160); }
	#title { text-anchor:middle; font-size:17px}
	#unzoom { cursor:pointer; }
	#frames > *:hover { stroke:black; stroke-width:0.5; cursor:pointer; }
	.hide { display:none; }
	.parent { opacity:0.5; }
</style>
<script type="text/ecmascript">
<![CDATA[
	"use strict";
	var details, searchbtn, unzoombtn, matchedtxt, svg, searching, currentSearchTerm, ignorecase, ignorecaseBtn;
	function init(evt) {
		details = document.getElementById("details").firstChild;
		searchbtn = document.getElementById("search");
		ignorecaseBtn = document.getElementById("ignorecase");
		unzoombtn = document.getElementById("unzoom");
		matchedtxt = document.getElementById("matched");
		svg = document.getElementsByTagName("svg")[0];
		searching = 0;
		currentSearchTerm = null;

		// use GET parameters to restore a flamegraphs state.
		var params = get_params();
		if (params.x && params.y)
			zoom(find_group(document.querySelector('[x="' + params.x + '"][y="' + params.y + '"]')));
                if (params.s) search(params.s);
	}

	// event listeners
	window.addEventListener("click", function(e) {
		var target = find_group(e.target);
		if (target) {
			if (target.nodeName == "a") {
				if (e.ctrlKey === false) return;
				e.preventDefault();
			}
			if (target.classList.contains("parent")) unzoom(true);
			zoom(target);
			if (!document.querySelector('.parent')) {
				// we have basically done a clearzoom so clear the url
				var params = get_params();
				if (params.x) delete params.x;
				if (params.y) delete params.y;
				history.replaceState(null, null, parse_params(params));
				unzoombtn.classList.add("hide");
				return;
			}

			// set parameters for zoom state
			var el = target.querySelector("rect");
			if (el && el.attributes && el.attributes.y && el.attributes._orig_x) {
				var params = get_params()
				params.x = el.attributes._orig_x.value;
				params.y = el.attributes.y.value;
				history.replaceState(null, null, parse_params(params));
			}
		}
		else if (e.target.id == "unzoom") clearzoom();
		else if (e.target.id == "search") search_prompt();
		else if (e.target.id == "ignorecase") toggle_ignorecase();
	}, false)

	// mouse-over for info
	// show
	window.addEventListener("mouseover", function(e) {
		var target = find_group(e.target);
		if (target) details.nodeValue = "Function: " + g_to_text(target);
	}, false)

	// clear
	window.addEventListener("mouseout", function(e) {
		var target = find_group(e.target);
		if (target) details.nodeValue = ' ';
	}, false)

	// ctrl-F for search
	// ctrl-I to toggle case-sensitive search
	window.addEventListener("keydown",function (e) {
		if (e.keyCode === 114 || (e.ctrlKey && e.keyCode === 70)) {
			e.preventDefault();
			search_prompt();
		}
		else if (e.ctrlKey && e.keyCode === 73) {
			e.preventDefault();
			toggle_ignorecase();
		}
	}, false)

	// functions
	function get_params() {
		var params = {};
		var paramsarr = window.location.search.substr(1).split('&');
		for (var i = 0; i < paramsarr.length; ++i) {
			var tmp = paramsarr[i].split("=");
			if (!tmp[0] || !tmp[1]) continue;
			params[tmp[0]]  = decodeURIComponent(tmp[1]);
		}
		return params;
	}
	function parse_params(params) {
		var uri = "?";
		for (var key in params) {
			uri += key + '=' + encodeURIComponent(params[key]) + '&';
		}
		if (uri.slice(-1) == "&")
			uri = uri.substring(0, uri.length - 1);
		if (uri == '?')
			uri = window.location.href.split('?')[0];
		return uri;
	}
	function find_child(node, selector) {
		var children = node.querySelectorAll(selector);
		if (children.length) return children[0];
	}
	function find_group(node) {
		var parent = node.parentElement;
		if (!parent) return;
		if (parent.id == "frames") return node;
		return find_group(parent);
	}
	function orig_save(e, attr, val) {
		if (e.attributes["_orig_" + attr] != undefined) return;
		if (e.attributes[attr] == undefined) return;
		if (val == undefined) val = e.attributes[attr].value;
		e.setAttribute("_orig_" + attr, val);
	}
	function orig_load(e, attr) {
		if (e.attributes["_orig_"+attr] == undefined) return;
		e.attributes[attr].value = e.attributes["_orig_" + attr].value;
		e.removeAttribute("_orig_"+attr);
	}
	function g_to_text(e) {
		var text = find_child(e, "title").firstChild.nodeValue;
		return (text)
	}
	function g_to_func(e) {
		var func = g_to_text(e);
		// if there's any manipulation we want to do to the function
		// name before it's searched, do it here before returning.
		return (func);
	}
	function update_text(e) {
		var r = find_child(e, "rect");
		var t = find_child(e, "text");
		var w = parseFloat(r.attributes.width.value) -3;
		var txt = find_child(e, "title").textContent.replace(/\([^(]*\)$/,"");
		t.attributes.x.value = parseFloat(r.attributes.x.value) + 3;

		// Smaller than this size won't fit anything
		if (w < 2 * 12 * 0.59) {
			t.textContent = "";
			return;
		}

		t.textContent = txt;
		var sl = t.getSubStringLength(0, txt.length);
		// check if only whitespace or if we can fit the entire string into width w
		if (/^ *$/.test(txt) || sl < w)
			return;

		// this isn't perfect, but gives a good starting point
		// and avoids calling getSubStringLength too often
		var start = Math.floor((w/sl) * txt.length);
		for (var x = start; x > 0; x = x-2) {
			if (t.getSubStringLength(0, x + 2) <= w) {
				t.textContent = txt.substring(0, x) + "..";
				return;
			}
		}
		t.textContent = "";
	}

	// zoom
	function zoom_reset(e) {
		if (e.attributes != undefined) {
			orig_load(e, "x");
			orig_load(e, "width");
		}
		if (e.childNodes == undefined) return;
		for (var i = 0, c = e.childNodes; i < c.length; i++) {
			zoom_reset(c[i]);
		}
	}
	function zoom_child(e, x, ratio) {
		if (e.attributes != undefined) {
			if (e.attributes.x != undefined) {
				orig_save(e, "x");
				e.attributes.x.value = (parseFloat(e.attributes.x.value) - x - 10) * ratio + 10;
				if (e.tagName == "text")
					e.attributes.x.value = find_child(e.parentNode, "rect[x]").attributes.x.value + 3;
			}
			if (e.attributes.width != undefined) {
				orig_save(e, "width");
				e.attributes.width.value = parseFloat(e.attributes.width.value) * ratio;
			}
		}

		if (e.childNodes == undefined) return;
		for (var i = 0, c = e.childNodes; i < c.length; i++) {
			zoom_child(c[i], x - 10, ratio);
		}
	}
	function zoom_parent(e) {
		if (e.attributes) {
			if (e.attributes.x != undefined) {
				orig_save(e, "x");
				e.attributes.x.value = 10;
			}
			if (e.attributes.width != undefined) {
				orig_save(e, "width");
				e.attributes.width.value = parseInt(svg.width.baseVal.value) - (10 * 2);
			}
		}
		if (e.childNodes == undefined) return;
		for (var i = 0, c = e.childNodes; i < c.length; i++) {
			zoom_parent(c[i]);
		}
	}
	function zoom(node) {
		var attr = find_child(node, "rect").attributes;
		var width = parseFloat(attr.width.value);
		var xmin = parseFloat(attr.x.value);
		var xmax = parseFloat(xmin + width);
		var ymin = parseFloat(attr.y.value);
		var ratio = (svg.width.baseVal.value - 2 * 10) / width;

		// XXX: Workaround for JavaScript float issues (fix me)
		var fudge = 0.0001;

		unzoombtn.classList.remove("hide");

		var el = document.getElementById("frames").children;
		for (var i = 0; i < el.length; i++) {
			var e = el[i];
			var a = find_child(e, "rect").attributes;
			var ex = parseFloat(a.x.value);
			var ew = parseFloat(a.width.value);
			var upstack;
			// Is it an ancestor
			if (0 == 0) {
				upstack = parseFloat(a.y.value) > ymin;
			} else {
				upstack = parseFloat(a.y.value) < ymin;
			}
			if (upstack) {
				// Direct ancestor
				if (ex <= xmin && (ex+ew+fudge) >= xmax) {
					e.classList.add("parent");
					zoom_parent(e);
					update_text(e);
				}
				// not in current path
				else
					e.classList.add("hide");
			}
			// Children maybe
			else {
				// no common path
				if (ex < xmin || ex + fudge >= xmax) {
					e.classList.add("hide");
				}
				else {
					zoom_child(e, xmin, ratio);
					update_text(e);
				}
			}
		}
		search();
	}
	function unzoom(dont_update_text) {
		unzoombtn.classList.add("hide");
		var el = document.getElementById("frames").children;
		for(var i = 0; i < el.length; i++) {
			el[i].classList.remove("parent");
			el[i].classList.remove("hide");
			zoom_reset(el[i]);
			if(!dont_update_text) update_text(el[i]);
		}
		search();
	}
	function clearzoom() {
		unzoom();

		// remove zoom state
		var params = get_params();
		if (params.x) delete params.x;
		if (params.y) delete params.y;
		history.replaceState(null, null, parse_params(params));
	}

	// search
	function toggle_ignorecase() {
		ignorecase = !ignorecase;
		if (ignorecase) {
			ignorecaseBtn.classList.add("show");
		} else {
			ignorecaseBtn.classList.remove("show");
		}
		reset_search();
		search();
	}
	function reset_search() {
		var el = document.querySelectorAll("#frames rect");
		for (var i = 0; i < el.length; i++) {
			orig_load(el[i], "fill")
		}
		var params = get_params();
		delete params.s;
		history.replaceState(null, null, parse_params(params));
	}
	function search_prompt() {
		if (!searching) {
			var term = prompt("Enter a search term (regexp " +
			    "allowed, eg: ^ext4_)"
			    + (ignorecase ? ", ignoring case" : "")
			    + "\nPress Ctrl-i to toggle case sensitivity", "");
			if (term != null) search(term);
		} else {
			reset_search();
			searching = 0;
			currentSearchTerm = null;
			searchbtn.classList.remove("show");
			searchbtn.firstChild.nodeValue = "Search"
			matchedtxt.classList.add("hide");
			matchedtxt.firstChild.nodeValue = ""
		}
	}
	function search(term) {
		if (term) currentSearchTerm = term;

		var re = new RegExp(currentSearchTerm, ignorecase ? 'i' : '');
		var el = document.getElementById("frames").children;
		var matches = new Object();
		var maxwidth = 0;
		for (var i = 0; i < el.length; i++) {
			var e = el[i];
			var func = g_to_func(e);
			var rect = find_child(e, "rect");
			if (func == null || rect == null)
				continue;

			// Save max width. Only works as we have a root frame
			var w = parseFloat(rect.attributes.width.value);
			if (w > maxwidth)
				maxwidth = w;

			if (func.match(re)) {
				// highlight
				var x = parseFloat(rect.attributes.x.value);
				orig_save(rect, "fill");
				rect.attributes.fill.value = "rgb(230,0,230)";

				// remember matches
				if (matches[x] == undefined) {
					matches[x] = w;
				} else {
					if (w > matches[x]) {
						// overwrite with parent
						matches[x] = w;
					}
				}
				searching = 1;
			}
		}
		if (!searching)
			return;
		var params = get_params();
		params.s = currentSearchTerm;
		history.replaceState(null, null, parse_params(params));

		searchbtn.classList.add("show");
		searchbtn.firstChild.nodeValue = "Reset Search";

		// calculate percent matched, excluding vertical overlap
		var count = 0;
		var lastx = -1;
		var lastw = 0;
		var keys = Array();
		for (k in matches) {
			if (matches.hasOwnProperty(k))
				keys.push(k);
		}
		// sort the matched frames by their x location
		// ascending, then width descending
		keys.sort(function(a, b){
			return a - b;
		});
		// Step through frames saving only the biggest bottom-up frames
		// thanks to the sort order. This relies on the tree property
		// where children are always smaller than their parents.
		var fudge = 0.0001;	// JavaScript floating point
		for (var k in keys) {
			var x = parseFloat(keys[k]);
			var w = matches[keys[k]];
			if (x >= lastx + lastw - fudge) {
				count += w;
				lastx = x;
				lastw = w;
			}
		}
		// display matched percent
		matchedtxt.classList.remove("hide");
		var pct = 100 * count / maxwidth;
		if (pct != 100) pct = pct.toFixed(1)
		matchedtxt.firstChild.nodeValue = "Matched: " + pct + "%";
	}
]]>
</script>
<rect x="0.0" y="0" width="1200.0" height="374.0" fill="url(#background)"  />
<text id="title" x="600.00" y="24" >Flame Graph</text>
<text id="details" x="10.00" y="357" > </text>
<text id="unzoom" x="10.00" y="24" class="hide">Reset Zoom</text>
<text id="search" x="1090.00" y="24" >Search</text>
<text id="ignorecase" x="1174.00" y="24" >ic</text>
<text id="matched" x="1090.00" y="357" > </text>
<g id="frames">
<g >
<title>__folio_throttle_swaprate (468,741,341 samples, 0.02%)</title><rect x="1188.3" y="149" width="0.3" height="15.0" fill="rgb(239,160,38)" rx="2" ry="2" />
<text  x="1191.33" y="159.5" ></text>
</g>
<g >
<title>tlb_finish_mmu (187,070,033 samples, 0.01%)</title><rect x="10.1" y="149" width="0.1" height="15.0" fill="rgb(251,212,50)" rx="2" ry="2" />
<text  x="13.05" y="159.5" ></text>
</g>
<g >
<title>__memset_avx2_unaligned_erms (191,820,799 samples, 0.01%)</title><rect x="1186.3" y="245" width="0.1" height="15.0" fill="rgb(223,84,20)" rx="2" ry="2" />
<text  x="1189.33" y="255.5" ></text>
</g>
<g >
<title>std::mersenne_twister_engine&lt;unsigned long, 32ul, 624ul, 397ul, 31ul, 2567483615ul, 11ul, 4294967295ul, 7ul, 2636928640ul, 15ul, 4022730752ul, 18ul, 1812433253ul&gt;::operator (215,421,000 samples, 0.01%)</title><rect x="1184.6" y="213" width="0.1" height="15.0" fill="rgb(235,139,33)" rx="2" ry="2" />
<text  x="1187.57" y="223.5" ></text>
</g>
<g >
<title>amd_pstate_update (438,566,659 samples, 0.02%)</title><rect x="1180.2" y="69" width="0.2" height="15.0" fill="rgb(211,30,7)" rx="2" ry="2" />
<text  x="1183.17" y="79.5" ></text>
</g>
<g >
<title>perf_adjust_freq_unthr_context (311,168,854 samples, 0.02%)</title><rect x="1178.1" y="117" width="0.2" height="15.0" fill="rgb(236,146,35)" rx="2" ry="2" />
<text  x="1181.09" y="127.5" ></text>
</g>
<g >
<title>std::mersenne_twister_engine&lt;unsigned long, 32ul, 624ul, 397ul, 31ul, 2567483615ul, 11ul, 4294967295ul, 7ul, 2636928640ul, 15ul, 4022730752ul, 18ul, 1812433253ul&gt;::operator (183,343,912 samples, 0.01%)</title><rect x="1185.2" y="197" width="0.1" height="15.0" fill="rgb(235,139,33)" rx="2" ry="2" />
<text  x="1188.18" y="207.5" ></text>
</g>
<g >
<title>enqueue_task_fair (431,460,822 samples, 0.02%)</title><rect x="1177.1" y="117" width="0.3" height="15.0" fill="rgb(216,52,12)" rx="2" ry="2" />
<text  x="1180.13" y="127.5" ></text>
</g>
<g >
<title>native_write_msr (180,277,172 samples, 0.01%)</title><rect x="1180.3" y="37" width="0.1" height="15.0" fill="rgb(237,151,36)" rx="2" ry="2" />
<text  x="1183.32" y="47.5" ></text>
</g>
<g >
<title>folio_add_new_anon_rmap (325,090,915 samples, 0.02%)</title><rect x="1188.1" y="165" width="0.2" height="15.0" fill="rgb(233,133,31)" rx="2" ry="2" />
<text  x="1191.12" y="175.5" ></text>
</g>
<g >
<title>do_syscall_64 (296,905,472 samples, 0.01%)</title><rect x="10.0" y="261" width="0.2" height="15.0" fill="rgb(209,20,4)" rx="2" ry="2" />
<text  x="13.04" y="271.5" ></text>
</g>
<g >
<title>asm_sysvec_apic_timer_interrupt (8,896,045,876 samples, 0.45%)</title><rect x="1176.1" y="261" width="5.3" height="15.0" fill="rgb(232,127,30)" rx="2" ry="2" />
<text  x="1179.12" y="271.5" ></text>
</g>
<g >
<title>__rmqueue_pcplist (392,963,693 samples, 0.02%)</title><rect x="1189.1" y="85" width="0.2" height="15.0" fill="rgb(230,118,28)" rx="2" ry="2" />
<text  x="1192.08" y="95.5" ></text>
</g>
<g >
<title>account_user_time (217,429,666 samples, 0.01%)</title><rect x="1177.6" y="149" width="0.2" height="15.0" fill="rgb(225,96,23)" rx="2" ry="2" />
<text  x="1180.62" y="159.5" ></text>
</g>
<g >
<title>tick_nohz_handler (5,948,822,185 samples, 0.30%)</title><rect x="1177.5" y="181" width="3.5" height="15.0" fill="rgb(248,200,48)" rx="2" ry="2" />
<text  x="1180.49" y="191.5" ></text>
</g>
<g >
<title>__alloc_frozen_pages_noprof (900,422,714 samples, 0.05%)</title><rect x="1188.8" y="117" width="0.5" height="15.0" fill="rgb(228,109,26)" rx="2" ry="2" />
<text  x="1191.79" y="127.5" ></text>
</g>
<g >
<title>enqueue_task (561,960,570 samples, 0.03%)</title><rect x="1177.1" y="133" width="0.4" height="15.0" fill="rgb(230,116,27)" rx="2" ry="2" />
<text  x="1180.13" y="143.5" ></text>
</g>
<g >
<title>asm_common_interrupt (356,395,622 samples, 0.02%)</title><rect x="1175.9" y="261" width="0.2" height="15.0" fill="rgb(227,105,25)" rx="2" ry="2" />
<text  x="1178.91" y="271.5" ></text>
</g>
<g >
<title>asm_exc_page_fault (3,937,583,321 samples, 0.20%)</title><rect x="1187.5" y="261" width="2.4" height="15.0" fill="rgb(225,93,22)" rx="2" ry="2" />
<text  x="1190.53" y="271.5" ></text>
</g>
<g >
<title>__mem_cgroup_charge (297,254,163 samples, 0.01%)</title><rect x="1188.6" y="149" width="0.2" height="15.0" fill="rgb(218,60,14)" rx="2" ry="2" />
<text  x="1191.61" y="159.5" ></text>
</g>
<g >
<title>blk_cgroup_congested (468,741,341 samples, 0.02%)</title><rect x="1188.3" y="133" width="0.3" height="15.0" fill="rgb(250,211,50)" rx="2" ry="2" />
<text  x="1191.33" y="143.5" ></text>
</g>
<g >
<title>__irqentry_text_end (702,769,136 samples, 0.04%)</title><rect x="1187.1" y="261" width="0.4" height="15.0" fill="rgb(248,199,47)" rx="2" ry="2" />
<text  x="1190.11" y="271.5" ></text>
</g>
<g >
<title>vms_clear_ptes (279,013,815 samples, 0.01%)</title><rect x="10.1" y="165" width="0.1" height="15.0" fill="rgb(206,4,1)" rx="2" ry="2" />
<text  x="13.05" y="175.5" ></text>
</g>
<g >
<title>perf_event_task_tick (346,303,399 samples, 0.02%)</title><rect x="1178.1" y="133" width="0.2" height="15.0" fill="rgb(205,3,0)" rx="2" ry="2" />
<text  x="1181.07" y="143.5" ></text>
</g>
<g >
<title>do_user_addr_fault (3,269,427,459 samples, 0.16%)</title><rect x="1187.8" y="229" width="1.9" height="15.0" fill="rgb(228,108,25)" rx="2" ry="2" />
<text  x="1190.82" y="239.5" ></text>
</g>
<g >
<title>__munmap (296,905,472 samples, 0.01%)</title><rect x="10.0" y="293" width="0.2" height="15.0" fill="rgb(211,29,7)" rx="2" ry="2" />
<text  x="13.04" y="303.5" ></text>
</g>
<g >
<title>asm_sysvec_reschedule_ipi (317,867,023 samples, 0.02%)</title><rect x="1181.4" y="261" width="0.2" height="15.0" fill="rgb(249,205,49)" rx="2" ry="2" />
<text  x="1184.38" y="271.5" ></text>
</g>
<g >
<title>update_process_times (5,681,752,749 samples, 0.28%)</title><rect x="1177.6" y="165" width="3.4" height="15.0" fill="rgb(250,209,50)" rx="2" ry="2" />
<text  x="1180.60" y="175.5" ></text>
</g>
<g >
<title>__sysvec_apic_timer_interrupt (7,289,871,887 samples, 0.36%)</title><rect x="1177.0" y="229" width="4.3" height="15.0" fill="rgb(242,173,41)" rx="2" ry="2" />
<text  x="1179.97" y="239.5" ></text>
</g>
<g >
<title>__count_memcg_events (242,899,474 samples, 0.01%)</title><rect x="1189.4" y="181" width="0.2" height="15.0" fill="rgb(250,211,50)" rx="2" ry="2" />
<text  x="1192.44" y="191.5" ></text>
</g>
<g >
<title>update_load_avg (1,940,724,521 samples, 0.10%)</title><rect x="1179.6" y="117" width="1.1" height="15.0" fill="rgb(240,165,39)" rx="2" ry="2" />
<text  x="1182.58" y="127.5" ></text>
</g>
<g >
<title>MemoryStressTest::performRandomAccess (6,014,870,148 samples, 0.30%)</title><rect x="1181.7" y="245" width="3.6" height="15.0" fill="rgb(227,103,24)" rx="2" ry="2" />
<text  x="1184.74" y="255.5" ></text>
</g>
<g >
<title>rm_isr (190,515,778 samples, 0.01%)</title><rect x="1175.9" y="149" width="0.1" height="15.0" fill="rgb(251,214,51)" rx="2" ry="2" />
<text  x="1178.92" y="159.5" ></text>
</g>
<g >
<title>__lruvec_stat_mod_folio (264,837,428 samples, 0.01%)</title><rect x="1188.2" y="133" width="0.1" height="15.0" fill="rgb(246,191,45)" rx="2" ry="2" />
<text  x="1191.16" y="143.5" ></text>
</g>
<g >
<title>void std::shuffle&lt;__gnu_cxx::__normal_iterator&lt;unsigned long*, std::vector&lt;unsigned long, std::allocator&lt;unsigned long&gt; &gt; &gt;, std::mersenne_twister_engine&lt;unsigned long, 32ul, 624ul, 397ul, 31ul, 2567483615ul, 11ul, 4294967295ul, 7ul, 2636928640ul, 15ul, 4022730752ul, 18ul, 1812433253ul&gt;&amp;&gt; (3,290,873,373 samples, 0.16%)</title><rect x="1183.3" y="229" width="2.0" height="15.0" fill="rgb(242,170,40)" rx="2" ry="2" />
<text  x="1186.34" y="239.5" ></text>
</g>
<g >
<title>do_vmi_munmap (296,905,472 samples, 0.01%)</title><rect x="10.0" y="213" width="0.2" height="15.0" fill="rgb(253,223,53)" rx="2" ry="2" />
<text  x="13.04" y="223.5" ></text>
</g>
<g >
<title>get_page_from_freelist (778,840,406 samples, 0.04%)</title><rect x="1188.9" y="101" width="0.4" height="15.0" fill="rgb(252,218,52)" rx="2" ry="2" />
<text  x="1191.86" y="111.5" ></text>
</g>
<g >
<title>_nv046989rm (190,515,778 samples, 0.01%)</title><rect x="1175.9" y="133" width="0.1" height="15.0" fill="rgb(243,176,42)" rx="2" ry="2" />
<text  x="1178.92" y="143.5" ></text>
</g>
<g >
<title>MemoryStressTest::performSequentialWrite (1,094,648,747 samples, 0.05%)</title><rect x="1185.7" y="245" width="0.6" height="15.0" fill="rgb(230,118,28)" rx="2" ry="2" />
<text  x="1188.68" y="255.5" ></text>
</g>
<g >
<title>irqentry_exit_to_user_mode (283,914,127 samples, 0.01%)</title><rect x="1181.4" y="245" width="0.2" height="15.0" fill="rgb(254,229,54)" rx="2" ry="2" />
<text  x="1184.39" y="255.5" ></text>
</g>
<g >
<title>nvidia_isr (207,988,014 samples, 0.01%)</title><rect x="1175.9" y="165" width="0.1" height="15.0" fill="rgb(240,162,38)" rx="2" ry="2" />
<text  x="1178.92" y="175.5" ></text>
</g>
<g >
<title>std::mersenne_twister_engine&lt;unsigned long, 32ul, 624ul, 397ul, 31ul, 2567483615ul, 11ul, 4294967295ul, 7ul, 2636928640ul, 15ul, 4022730752ul, 18ul, 1812433253ul&gt;::_M_gen_rand (416,269,500 samples, 0.02%)</title><rect x="1184.9" y="197" width="0.3" height="15.0" fill="rgb(207,12,3)" rx="2" ry="2" />
<text  x="1187.93" y="207.5" ></text>
</g>
<g >
<title>do_anonymous_page (2,466,245,951 samples, 0.12%)</title><rect x="1187.9" y="181" width="1.5" height="15.0" fill="rgb(238,155,37)" rx="2" ry="2" />
<text  x="1190.95" y="191.5" ></text>
</g>
<g >
<title>lru_add (218,285,917 samples, 0.01%)</title><rect x="1188.0" y="133" width="0.1" height="15.0" fill="rgb(241,167,40)" rx="2" ry="2" />
<text  x="1190.98" y="143.5" ></text>
</g>
<g >
<title>__irqentry_text_end (545,225,701 samples, 0.03%)</title><rect x="1175.6" y="261" width="0.3" height="15.0" fill="rgb(248,199,47)" rx="2" ry="2" />
<text  x="1178.58" y="271.5" ></text>
</g>
<g >
<title>__folio_mod_stat (272,785,482 samples, 0.01%)</title><rect x="1188.2" y="149" width="0.1" height="15.0" fill="rgb(254,227,54)" rx="2" ry="2" />
<text  x="1191.15" y="159.5" ></text>
</g>
<g >
<title>exc_page_fault (3,515,139,045 samples, 0.18%)</title><rect x="1187.7" y="245" width="2.0" height="15.0" fill="rgb(212,35,8)" rx="2" ry="2" />
<text  x="1190.67" y="255.5" ></text>
</g>
<g >
<title>update_cfs_group (223,656,984 samples, 0.01%)</title><rect x="1179.2" y="117" width="0.1" height="15.0" fill="rgb(242,174,41)" rx="2" ry="2" />
<text  x="1182.15" y="127.5" ></text>
</g>
<g >
<title>common_interrupt (287,353,203 samples, 0.01%)</title><rect x="1175.9" y="245" width="0.2" height="15.0" fill="rgb(215,46,11)" rx="2" ry="2" />
<text  x="1178.91" y="255.5" ></text>
</g>
<g >
<title>__tlb_batch_free_encoded_pages (178,357,895 samples, 0.01%)</title><rect x="10.1" y="133" width="0.1" height="15.0" fill="rgb(205,3,0)" rx="2" ry="2" />
<text  x="13.05" y="143.5" ></text>
</g>
<g >
<title>folio_batch_move_lru (252,666,884 samples, 0.01%)</title><rect x="1188.0" y="149" width="0.1" height="15.0" fill="rgb(207,10,2)" rx="2" ry="2" />
<text  x="1190.96" y="159.5" ></text>
</g>
<g >
<title>__memset_avx2_unaligned_erms (196,270,922 samples, 0.01%)</title><rect x="1186.4" y="261" width="0.2" height="15.0" fill="rgb(223,84,20)" rx="2" ry="2" />
<text  x="1189.45" y="271.5" ></text>
</g>
<g >
<title>MemoryStressTest::measureMemoryBandwidth (8,129,120,183 samples, 0.41%)</title><rect x="1181.6" y="261" width="4.8" height="15.0" fill="rgb(244,179,42)" rx="2" ry="2" />
<text  x="1184.65" y="271.5" ></text>
</g>
<g >
<title>hrtimer_interrupt (7,255,296,516 samples, 0.36%)</title><rect x="1177.0" y="213" width="4.3" height="15.0" fill="rgb(228,109,26)" rx="2" ry="2" />
<text  x="1179.97" y="223.5" ></text>
</g>
<g >
<title>vma_alloc_folio_noprof (1,011,741,839 samples, 0.05%)</title><rect x="1188.8" y="149" width="0.6" height="15.0" fill="rgb(218,61,14)" rx="2" ry="2" />
<text  x="1191.78" y="159.5" ></text>
</g>
<g >
<title>sched_tick (5,074,508,868 samples, 0.25%)</title><rect x="1177.9" y="149" width="3.0" height="15.0" fill="rgb(238,155,37)" rx="2" ry="2" />
<text  x="1180.89" y="159.5" ></text>
</g>
<g >
<title>__irq_exit_rcu (379,229,835 samples, 0.02%)</title><rect x="1176.7" y="229" width="0.3" height="15.0" fill="rgb(227,101,24)" rx="2" ry="2" />
<text  x="1179.75" y="239.5" ></text>
</g>
<g >
<title>cpufreq_cpu_get (234,411,454 samples, 0.01%)</title><rect x="1180.4" y="69" width="0.2" height="15.0" fill="rgb(253,223,53)" rx="2" ry="2" />
<text  x="1183.43" y="79.5" ></text>
</g>
<g >
<title>SystemStressTes (1,997,423,887,504 samples, 100.00%)</title><rect x="10.0" y="309" width="1180.0" height="15.0" fill="rgb(248,201,48)" rx="2" ry="2" />
<text  x="13.00" y="319.5" >SystemStressTes</text>
</g>
<g >
<title>all (1,997,423,891,759 samples, 100%)</title><rect x="10.0" y="325" width="1180.0" height="15.0" fill="rgb(213,39,9)" rx="2" ry="2" />
<text  x="13.00" y="335.5" ></text>
</g>
<g >
<title>MemoryStressTest::performSequentialRead (669,077,435 samples, 0.03%)</title><rect x="1185.3" y="245" width="0.4" height="15.0" fill="rgb(254,228,54)" rx="2" ry="2" />
<text  x="1188.29" y="255.5" ></text>
</g>
<g >
<title>sugov_update_single_perf (1,096,199,600 samples, 0.05%)</title><rect x="1180.1" y="101" width="0.6" height="15.0" fill="rgb(206,8,2)" rx="2" ry="2" />
<text  x="1183.08" y="111.5" ></text>
</g>
<g >
<title>folio_prealloc (1,803,932,372 samples, 0.09%)</title><rect x="1188.3" y="165" width="1.1" height="15.0" fill="rgb(239,160,38)" rx="2" ry="2" />
<text  x="1191.31" y="175.5" ></text>
</g>
<g >
<title>do_vmi_align_munmap (296,905,472 samples, 0.01%)</title><rect x="10.0" y="197" width="0.2" height="15.0" fill="rgb(211,29,7)" rx="2" ry="2" />
<text  x="13.04" y="207.5" ></text>
</g>
<g >
<title>__folio_batch_add_and_move (252,666,884 samples, 0.01%)</title><rect x="1188.0" y="165" width="0.1" height="15.0" fill="rgb(254,227,54)" rx="2" ry="2" />
<text  x="1190.96" y="175.5" ></text>
</g>
<g >
<title>update_entity_lag (172,941,660 samples, 0.01%)</title><rect x="1179.0" y="101" width="0.1" height="15.0" fill="rgb(221,74,17)" rx="2" ry="2" />
<text  x="1182.04" y="111.5" ></text>
</g>
<g >
<title>ktime_get_update_offsets_now (216,140,822 samples, 0.01%)</title><rect x="1181.1" y="197" width="0.2" height="15.0" fill="rgb(243,178,42)" rx="2" ry="2" />
<text  x="1184.13" y="207.5" ></text>
</g>
<g >
<title>handle_edge_irq (260,294,930 samples, 0.01%)</title><rect x="1175.9" y="213" width="0.2" height="15.0" fill="rgb(220,69,16)" rx="2" ry="2" />
<text  x="1178.91" y="223.5" ></text>
</g>
<g >
<title>__common_interrupt (260,294,930 samples, 0.01%)</title><rect x="1175.9" y="229" width="0.2" height="15.0" fill="rgb(237,150,36)" rx="2" ry="2" />
<text  x="1178.91" y="239.5" ></text>
</g>
<g >
<title>execute_native_thread_routine (1,997,012,494,730 samples, 99.98%)</title><rect x="10.2" y="293" width="1179.8" height="15.0" fill="rgb(233,129,30)" rx="2" ry="2" />
<text  x="13.23" y="303.5" >execute_native_thread_routine</text>
</g>
<g >
<title>entry_SYSCALL_64_after_hwframe (296,905,472 samples, 0.01%)</title><rect x="10.0" y="277" width="0.2" height="15.0" fill="rgb(218,63,15)" rx="2" ry="2" />
<text  x="13.04" y="287.5" ></text>
</g>
<g >
<title>MemoryStressTest::memoryStressTest (5,768,622,520 samples, 0.29%)</title><rect x="1186.6" y="277" width="3.4" height="15.0" fill="rgb(234,134,32)" rx="2" ry="2" />
<text  x="1189.57" y="287.5" ></text>
</g>
<g >
<title>handle_mm_fault (2,955,676,918 samples, 0.15%)</title><rect x="1187.8" y="213" width="1.8" height="15.0" fill="rgb(234,135,32)" rx="2" ry="2" />
<text  x="1190.84" y="223.5" ></text>
</g>
<g >
<title>psi_account_irqtime (615,019,245 samples, 0.03%)</title><rect x="1178.3" y="133" width="0.3" height="15.0" fill="rgb(224,88,21)" rx="2" ry="2" />
<text  x="1181.28" y="143.5" ></text>
</g>
<g >
<title>folios_put_refs (169,435,228 samples, 0.01%)</title><rect x="10.1" y="101" width="0.1" height="15.0" fill="rgb(254,229,54)" rx="2" ry="2" />
<text  x="13.06" y="111.5" ></text>
</g>
<g >
<title>sysvec_apic_timer_interrupt (7,842,750,647 samples, 0.39%)</title><rect x="1176.7" y="245" width="4.7" height="15.0" fill="rgb(220,69,16)" rx="2" ry="2" />
<text  x="1179.75" y="255.5" ></text>
</g>
<g >
<title>task_tick_fair (3,506,453,611 samples, 0.18%)</title><rect x="1178.7" y="133" width="2.0" height="15.0" fill="rgb(217,57,13)" rx="2" ry="2" />
<text  x="1181.67" y="143.5" ></text>
</g>
<g >
<title>handle_softirqs (292,839,428 samples, 0.01%)</title><rect x="1176.8" y="213" width="0.1" height="15.0" fill="rgb(238,156,37)" rx="2" ry="2" />
<text  x="1179.77" y="223.5" ></text>
</g>
<g >
<title>count_memcg_events.constprop.0 (260,400,484 samples, 0.01%)</title><rect x="1189.4" y="197" width="0.2" height="15.0" fill="rgb(213,41,9)" rx="2" ry="2" />
<text  x="1192.43" y="207.5" ></text>
</g>
<g >
<title>CPUStressTest::cpuHashStressTest (1,982,900,868,161 samples, 99.27%)</title><rect x="10.2" y="277" width="1171.4" height="15.0" fill="rgb(245,185,44)" rx="2" ry="2" />
<text  x="13.23" y="287.5" >CPUStressTest::cpuHashStressTest</text>
</g>
<g >
<title>schedule (421,877,749 samples, 0.02%)</title><rect x="1176.4" y="229" width="0.2" height="15.0" fill="rgb(254,229,54)" rx="2" ry="2" />
<text  x="1179.39" y="239.5" ></text>
</g>
<g >
<title>update_curr (499,553,600 samples, 0.03%)</title><rect x="1179.3" y="117" width="0.3" height="15.0" fill="rgb(227,105,25)" rx="2" ry="2" />
<text  x="1182.28" y="127.5" ></text>
</g>
<g >
<title>reweight_entity (469,492,825 samples, 0.02%)</title><rect x="1178.9" y="117" width="0.2" height="15.0" fill="rgb(253,222,53)" rx="2" ry="2" />
<text  x="1181.86" y="127.5" ></text>
</g>
<g >
<title>MemoryStressTest::continuousBandwidthTest (8,325,391,105 samples, 0.42%)</title><rect x="1181.6" y="277" width="5.0" height="15.0" fill="rgb(239,159,38)" rx="2" ry="2" />
<text  x="1184.65" y="287.5" ></text>
</g>
<g >
<title>__list_del_entry_valid_or_report (358,138,658 samples, 0.02%)</title><rect x="1189.1" y="69" width="0.2" height="15.0" fill="rgb(243,176,42)" rx="2" ry="2" />
<text  x="1192.10" y="79.5" ></text>
</g>
<g >
<title>__hrtimer_run_queues (6,822,361,208 samples, 0.34%)</title><rect x="1177.0" y="197" width="4.1" height="15.0" fill="rgb(237,150,35)" rx="2" ry="2" />
<text  x="1180.04" y="207.5" ></text>
</g>
<g >
<title>free_pages_and_swap_cache (178,357,895 samples, 0.01%)</title><rect x="10.1" y="117" width="0.1" height="15.0" fill="rgb(222,82,19)" rx="2" ry="2" />
<text  x="13.05" y="127.5" ></text>
</g>
<g >
<title>_nv046969rm (190,515,778 samples, 0.01%)</title><rect x="1175.9" y="117" width="0.1" height="15.0" fill="rgb(206,6,1)" rx="2" ry="2" />
<text  x="1178.92" y="127.5" ></text>
</g>
<g >
<title>try_to_wake_up (700,379,542 samples, 0.04%)</title><rect x="1177.1" y="165" width="0.4" height="15.0" fill="rgb(220,70,16)" rx="2" ry="2" />
<text  x="1180.08" y="175.5" ></text>
</g>
<g >
<title>__update_load_avg_cfs_rq (236,512,860 samples, 0.01%)</title><rect x="1179.8" y="101" width="0.1" height="15.0" fill="rgb(228,107,25)" rx="2" ry="2" />
<text  x="1182.78" y="111.5" ></text>
</g>
<g >
<title>irqentry_exit_to_user_mode (552,480,196 samples, 0.03%)</title><rect x="1176.3" y="245" width="0.4" height="15.0" fill="rgb(254,229,54)" rx="2" ry="2" />
<text  x="1179.34" y="255.5" ></text>
</g>
<g >
<title>__x64_sys_munmap (296,905,472 samples, 0.01%)</title><rect x="10.0" y="245" width="0.2" height="15.0" fill="rgb(206,7,1)" rx="2" ry="2" />
<text  x="13.04" y="255.5" ></text>
</g>
<g >
<title>hrtimer_wakeup (700,379,542 samples, 0.04%)</title><rect x="1177.1" y="181" width="0.4" height="15.0" fill="rgb(252,219,52)" rx="2" ry="2" />
<text  x="1180.08" y="191.5" ></text>
</g>
<g >
<title>ttwu_do_activate (604,442,375 samples, 0.03%)</title><rect x="1177.1" y="149" width="0.4" height="15.0" fill="rgb(215,48,11)" rx="2" ry="2" />
<text  x="1180.12" y="159.5" ></text>
</g>
<g >
<title>alloc_pages_mpol (935,207,025 samples, 0.05%)</title><rect x="1188.8" y="133" width="0.5" height="15.0" fill="rgb(254,227,54)" rx="2" ry="2" />
<text  x="1191.78" y="143.5" ></text>
</g>
<g >
<title>__pgalloc_tag_add (349,152,482 samples, 0.02%)</title><rect x="1188.9" y="85" width="0.2" height="15.0" fill="rgb(231,121,29)" rx="2" ry="2" />
<text  x="1191.87" y="95.5" ></text>
</g>
<g >
<title>schedule (248,624,403 samples, 0.01%)</title><rect x="1181.4" y="229" width="0.2" height="15.0" fill="rgb(254,229,54)" rx="2" ry="2" />
<text  x="1184.41" y="239.5" ></text>
</g>
<g >
<title>__schedule (248,624,403 samples, 0.01%)</title><rect x="1181.4" y="213" width="0.2" height="15.0" fill="rgb(227,103,24)" rx="2" ry="2" />
<text  x="1184.41" y="223.5" ></text>
</g>
<g >
<title>handle_irq_event (242,692,757 samples, 0.01%)</title><rect x="1175.9" y="197" width="0.2" height="15.0" fill="rgb(209,19,4)" rx="2" ry="2" />
<text  x="1178.91" y="207.5" ></text>
</g>
<g >
<title>arch_scale_freq_tick (225,632,022 samples, 0.01%)</title><rect x="1177.9" y="133" width="0.2" height="15.0" fill="rgb(252,219,52)" rx="2" ry="2" />
<text  x="1180.93" y="143.5" ></text>
</g>
<g >
<title>vms_complete_munmap_vmas (279,013,815 samples, 0.01%)</title><rect x="10.1" y="181" width="0.1" height="15.0" fill="rgb(216,52,12)" rx="2" ry="2" />
<text  x="13.05" y="191.5" ></text>
</g>
<g >
<title>cpufreq_cpu_get (232,564,169 samples, 0.01%)</title><rect x="1180.2" y="53" width="0.1" height="15.0" fill="rgb(253,223,53)" rx="2" ry="2" />
<text  x="1183.18" y="63.5" ></text>
</g>
<g >
<title>error_entry (205,392,202 samples, 0.01%)</title><rect x="1189.9" y="261" width="0.1" height="15.0" fill="rgb(240,163,39)" rx="2" ry="2" />
<text  x="1192.85" y="271.5" ></text>
</g>
<g >
<title>__handle_irq_event_percpu (234,045,011 samples, 0.01%)</title><rect x="1175.9" y="181" width="0.2" height="15.0" fill="rgb(236,147,35)" rx="2" ry="2" />
<text  x="1178.92" y="191.5" ></text>
</g>
<g >
<title>amd_pstate_adjust_perf (741,640,146 samples, 0.04%)</title><rect x="1180.1" y="85" width="0.5" height="15.0" fill="rgb(224,91,21)" rx="2" ry="2" />
<text  x="1183.14" y="95.5" ></text>
</g>
<g >
<title>unsigned long std::uniform_int_distribution&lt;unsigned long&gt;::operator (997,381,654 samples, 0.05%)</title><rect x="1184.7" y="213" width="0.6" height="15.0" fill="rgb(252,216,51)" rx="2" ry="2" />
<text  x="1187.70" y="223.5" ></text>
</g>
<g >
<title>__schedule (421,876,597 samples, 0.02%)</title><rect x="1176.4" y="213" width="0.2" height="15.0" fill="rgb(227,103,24)" rx="2" ry="2" />
<text  x="1179.39" y="223.5" ></text>
</g>
<g >
<title>__handle_mm_fault (2,649,948,460 samples, 0.13%)</title><rect x="1187.9" y="197" width="1.5" height="15.0" fill="rgb(207,9,2)" rx="2" ry="2" />
<text  x="1190.85" y="207.5" ></text>
</g>
<g >
<title>msr_update_perf (188,877,758 samples, 0.01%)</title><rect x="1180.3" y="53" width="0.1" height="15.0" fill="rgb(227,104,24)" rx="2" ry="2" />
<text  x="1183.32" y="63.5" ></text>
</g>
<g >
<title>lock_vma_under_rcu (278,825,024 samples, 0.01%)</title><rect x="1189.6" y="213" width="0.1" height="15.0" fill="rgb(251,211,50)" rx="2" ry="2" />
<text  x="1192.58" y="223.5" ></text>
</g>
<g >
<title>__vm_munmap (296,905,472 samples, 0.01%)</title><rect x="10.0" y="229" width="0.2" height="15.0" fill="rgb(231,121,28)" rx="2" ry="2" />
<text  x="13.04" y="239.5" ></text>
</g>
</g>
</svg>
